<svg xmlns="http://www.w3.org/2000/svg" xmlns:xlink="http://www.w3.org/1999/xlink" width="66" zoomAndPan="magnify" viewBox="0 0 49.5 30.000001" height="40" preserveAspectRatio="xMidYMid meet" version="1.0"><defs><g/></defs><g fill="#000000" fill-opacity="1"><g transform="translate(0.658754, 19.393911)"><g><path d="M 11.375 -2.53125 L 11.375 0 L 1.484375 0 L 1.484375 -14.015625 L 4.40625 -14.015625 L 4.40625 -2.53125 Z M 11.375 -2.53125 "/></g></g></g><g fill="#000000" fill-opacity="1"><g transform="translate(12.580068, 19.393911)"><g><path d="M 11.28125 -5.1875 C 11.28125 -4.070312 11.054688 -3.101562 10.609375 -2.28125 C 10.171875 -1.457031 9.546875 -0.828125 8.734375 -0.390625 C 7.929688 0.046875 7.007812 0.265625 5.96875 0.265625 C 4.925781 0.265625 4 0.046875 3.1875 -0.390625 C 2.382812 -0.828125 1.757812 -1.457031 1.3125 -2.28125 C 0.875 -3.101562 0.65625 -4.070312 0.65625 -5.1875 C 0.65625 -6.3125 0.878906 -7.285156 1.328125 -8.109375 C 1.785156 -8.929688 2.414062 -9.5625 3.21875 -10 C 4.03125 -10.4375 4.945312 -10.65625 5.96875 -10.65625 C 7.007812 -10.65625 7.929688 -10.429688 8.734375 -9.984375 C 9.546875 -9.546875 10.171875 -8.914062 10.609375 -8.09375 C 11.054688 -7.28125 11.28125 -6.3125 11.28125 -5.1875 Z M 5.96875 -2.03125 C 6.800781 -2.03125 7.425781 -2.304688 7.84375 -2.859375 C 8.257812 -3.410156 8.46875 -4.1875 8.46875 -5.1875 C 8.46875 -6.1875 8.253906 -6.960938 7.828125 -7.515625 C 7.410156 -8.078125 6.785156 -8.359375 5.953125 -8.359375 C 5.160156 -8.359375 4.546875 -8.082031 4.109375 -7.53125 C 3.679688 -6.988281 3.46875 -6.207031 3.46875 -5.1875 C 3.46875 -4.164062 3.679688 -3.382812 4.109375 -2.84375 C 4.535156 -2.300781 5.15625 -2.03125 5.96875 -2.03125 Z M 5.96875 -2.03125 "/></g></g></g><g fill="#000000" fill-opacity="1"><g transform="translate(24.501381, 19.393911)"><g><path d="M 8.140625 -8.84375 L 8.171875 -8.84375 L 8.171875 -10.375 L 10.796875 -10.375 L 10.796875 -0.15625 C 10.796875 1.457031 10.328125 2.59375 9.390625 3.25 C 8.453125 3.90625 7.175781 4.234375 5.5625 4.234375 C 4.257812 4.234375 3.1875 3.945312 2.34375 3.375 C 1.5 2.8125 1.054688 2.054688 1.015625 1.109375 L 3.984375 1.109375 C 4.054688 1.503906 4.242188 1.78125 4.546875 1.9375 C 4.847656 2.09375 5.289062 2.171875 5.875 2.171875 C 6.625 2.171875 7.175781 1.984375 7.53125 1.609375 C 7.882812 1.234375 8.0625 0.648438 8.0625 -0.140625 L 8.0625 -1.46875 L 8.015625 -1.5 C 7.671875 -0.925781 7.285156 -0.519531 6.859375 -0.28125 C 6.429688 -0.0507812 5.894531 0.0625 5.25 0.0625 C 4.351562 0.0625 3.566406 -0.148438 2.890625 -0.578125 C 2.210938 -1.015625 1.691406 -1.632812 1.328125 -2.4375 C 0.960938 -3.25 0.78125 -4.207031 0.78125 -5.3125 C 0.78125 -6.40625 0.960938 -7.351562 1.328125 -8.15625 C 1.691406 -8.96875 2.195312 -9.585938 2.84375 -10.015625 C 3.5 -10.441406 4.25 -10.65625 5.09375 -10.65625 C 5.820312 -10.65625 6.441406 -10.5 6.953125 -10.1875 C 7.472656 -9.875 7.867188 -9.425781 8.140625 -8.84375 Z M 5.75 -2.25 C 6.507812 -2.25 7.085938 -2.507812 7.484375 -3.03125 C 7.878906 -3.550781 8.078125 -4.289062 8.078125 -5.25 C 8.078125 -6.132812 7.863281 -6.863281 7.4375 -7.4375 C 7.007812 -8.007812 6.4375 -8.296875 5.71875 -8.296875 C 5.050781 -8.296875 4.53125 -8.015625 4.15625 -7.453125 C 3.78125 -6.890625 3.59375 -6.125 3.59375 -5.15625 C 3.59375 -4.257812 3.785156 -3.550781 4.171875 -3.03125 C 4.566406 -2.507812 5.09375 -2.25 5.75 -2.25 Z M 5.75 -2.25 "/></g></g></g><g fill="#000000" fill-opacity="1"><g transform="translate(36.422695, 19.393911)"><g><path d="M 11.28125 -5.1875 C 11.28125 -4.070312 11.054688 -3.101562 10.609375 -2.28125 C 10.171875 -1.457031 9.546875 -0.828125 8.734375 -0.390625 C 7.929688 0.046875 7.007812 0.265625 5.96875 0.265625 C 4.925781 0.265625 4 0.046875 3.1875 -0.390625 C 2.382812 -0.828125 1.757812 -1.457031 1.3125 -2.28125 C 0.875 -3.101562 0.65625 -4.070312 0.65625 -5.1875 C 0.65625 -6.3125 0.878906 -7.285156 1.328125 -8.109375 C 1.785156 -8.929688 2.414062 -9.5625 3.21875 -10 C 4.03125 -10.4375 4.945312 -10.65625 5.96875 -10.65625 C 7.007812 -10.65625 7.929688 -10.429688 8.734375 -9.984375 C 9.546875 -9.546875 10.171875 -8.914062 10.609375 -8.09375 C 11.054688 -7.28125 11.28125 -6.3125 11.28125 -5.1875 Z M 5.96875 -2.03125 C 6.800781 -2.03125 7.425781 -2.304688 7.84375 -2.859375 C 8.257812 -3.410156 8.46875 -4.1875 8.46875 -5.1875 C 8.46875 -6.1875 8.253906 -6.960938 7.828125 -7.515625 C 7.410156 -8.078125 6.785156 -8.359375 5.953125 -8.359375 C 5.160156 -8.359375 4.546875 -8.082031 4.109375 -7.53125 C 3.679688 -6.988281 3.46875 -6.207031 3.46875 -5.1875 C 3.46875 -4.164062 3.679688 -3.382812 4.109375 -2.84375 C 4.535156 -2.300781 5.15625 -2.03125 5.96875 -2.03125 Z M 5.96875 -2.03125 "/></g></g></g></svg>